<mxfile host="Electron" modified="2023-03-31T14:26:23.215Z" agent="Mozilla/5.0 (Macintosh; Intel Mac OS X 10_15_7) AppleWebKit/537.36 (KHTML, like Gecko) draw.io/21.1.2 Chrome/106.0.5249.199 Electron/21.4.3 Safari/537.36" etag="ypOT3rX0nPnvaQVgi27k" version="21.1.2" type="device">
  <diagram name="第 1 页" id="wbGwFD7fFKVuccKNk28z">
    <mxGraphModel dx="1180" dy="835" grid="1" gridSize="10" guides="1" tooltips="1" connect="1" arrows="1" fold="1" page="1" pageScale="1" pageWidth="827" pageHeight="1169" math="0" shadow="0">
      <root>
        <mxCell id="0" />
        <mxCell id="1" parent="0" />
        <mxCell id="scVtLC330F3d7FGY5HGX-3" value="" style="edgeStyle=orthogonalEdgeStyle;rounded=0;orthogonalLoop=1;jettySize=auto;html=1;" edge="1" parent="1" source="scVtLC330F3d7FGY5HGX-1" target="scVtLC330F3d7FGY5HGX-2">
          <mxGeometry relative="1" as="geometry" />
        </mxCell>
        <mxCell id="scVtLC330F3d7FGY5HGX-1" value="main" style="rounded=1;whiteSpace=wrap;html=1;" vertex="1" parent="1">
          <mxGeometry x="250" y="140" width="120" height="60" as="geometry" />
        </mxCell>
        <mxCell id="scVtLC330F3d7FGY5HGX-6" value="" style="edgeStyle=orthogonalEdgeStyle;rounded=0;orthogonalLoop=1;jettySize=auto;html=1;" edge="1" parent="1" source="scVtLC330F3d7FGY5HGX-2" target="scVtLC330F3d7FGY5HGX-5">
          <mxGeometry relative="1" as="geometry" />
        </mxCell>
        <mxCell id="scVtLC330F3d7FGY5HGX-8" style="edgeStyle=orthogonalEdgeStyle;rounded=0;orthogonalLoop=1;jettySize=auto;html=1;" edge="1" parent="1" source="scVtLC330F3d7FGY5HGX-2" target="scVtLC330F3d7FGY5HGX-7">
          <mxGeometry relative="1" as="geometry" />
        </mxCell>
        <mxCell id="scVtLC330F3d7FGY5HGX-2" value="start network and communication（IPC, WebSocket）" style="rounded=1;whiteSpace=wrap;html=1;" vertex="1" parent="1">
          <mxGeometry x="215" y="270" width="190" height="80" as="geometry" />
        </mxCell>
        <mxCell id="scVtLC330F3d7FGY5HGX-5" value="start main thread to get the next command" style="whiteSpace=wrap;html=1;rounded=1;" vertex="1" parent="1">
          <mxGeometry x="110" y="440" width="170" height="70" as="geometry" />
        </mxCell>
        <mxCell id="scVtLC330F3d7FGY5HGX-7" value="start main thread to get the next command" style="whiteSpace=wrap;html=1;rounded=1;" vertex="1" parent="1">
          <mxGeometry x="340" y="440" width="170" height="70" as="geometry" />
        </mxCell>
      </root>
    </mxGraphModel>
  </diagram>
</mxfile>
